<?xml version="1.0" encoding="utf-8"?>
<!-- Generator: Adobe Illustrator 19.2.1, SVG Export Plug-In . SVG Version: 6.00 Build 0)  -->
<svg version="1.1" id="Layer_1" xmlns="http://www.w3.org/2000/svg" xmlns:xlink="http://www.w3.org/1999/xlink" x="0px" y="0px"
	 viewBox="0 0 100.4 100.4" style="enable-background:new 0 0 100.4 100.4;" xml:space="preserve">
<style type="text/css">
	.st0{fill:#231F20;}
</style>
<path class="st0" d="M89.1,9.4H36.2c-0.8,0-1.5,0.7-1.5,1.5v21.6H10.9c-0.8,0-1.5,0.7-1.5,1.5v42.1c0,0.8,0.7,1.5,1.5,1.5h12.5
	l11.8,12.5c0.3,0.3,0.7,0.5,1.1,0.5c0.2,0,0.4,0,0.6-0.1c0.6-0.2,0.9-0.8,0.9-1.4l0-11.5h28.6c0.8,0,1.5-0.7,1.5-1.5V54.5h21.2
	c0.8,0,1.5-0.7,1.5-1.5V10.9C90.6,10.1,89.9,9.4,89.1,9.4z M64.9,74.6H36.4c-0.8,0-1.5,0.7-1.5,1.5l0,9.2l-9.7-10.2
	c-0.3-0.3-0.7-0.5-1.1-0.5H12.4V35.5h22.2V53c0,0.8,0.7,1.5,1.5,1.5h10.6V65c0,0.6,0.4,1.1,0.9,1.4c0.2,0.1,0.4,0.1,0.6,0.1
	c0.4,0,0.8-0.1,1.1-0.4l11.8-11.6h3.8L64.9,74.6z M87.6,51.5h-27c-0.4,0-0.8,0.2-1.1,0.4l-9.7,9.5V53c0-0.8-0.7-1.5-1.5-1.5H37.7
	V12.4h49.9L87.6,51.5L87.6,51.5L87.6,51.5z"/>
</svg>
