<?xml version="1.0" encoding="utf-8"?>
<!-- Generator: Adobe Illustrator 19.2.1, SVG Export Plug-In . SVG Version: 6.00 Build 0)  -->
<svg version="1.1" id="Layer_2" xmlns="http://www.w3.org/2000/svg" xmlns:xlink="http://www.w3.org/1999/xlink" x="0px" y="0px"
	 viewBox="0 0 79 82" enable-background="new 0 0 79 82" xml:space="preserve">
<g>
	<path fill="none" stroke="#ADADAD" stroke-width="2" stroke-linecap="round" stroke-linejoin="round" stroke-miterlimit="10" d="
		M31.939,37.343H9c-4.418,0-8-3.582-8-8V9c0-4.418,3.582-8,8-8h22.939c4.418,0,8,3.582,8,8v20.343
		C39.939,33.761,36.357,37.343,31.939,37.343z"/>
	
		<line fill="none" stroke="#ADADAD" stroke-width="2" stroke-linecap="round" stroke-linejoin="round" stroke-miterlimit="10" x1="13.98" y1="11.384" x2="13.98" y2="26.959"/>
	
		<line fill="none" stroke="#ADADAD" stroke-width="2" stroke-linecap="round" stroke-linejoin="round" stroke-miterlimit="10" x1="26.959" y1="11.384" x2="26.959" y2="26.959"/>
</g>
<g>
	
		<line fill="none" stroke="#5A5CF8" stroke-width="2" stroke-linecap="round" stroke-linejoin="round" stroke-miterlimit="10" x1="24.457" y1="57.137" x2="50.155" y2="31.439"/>
	
		<line fill="none" stroke="#5A5CF8" stroke-width="2" stroke-linecap="round" stroke-linejoin="round" stroke-miterlimit="10" x1="31.799" y1="49.795" x2="22.621" y2="40.617"/>
	
		<line fill="none" stroke="#5A5CF8" stroke-width="2" stroke-linecap="round" stroke-linejoin="round" stroke-miterlimit="10" x1="42.812" y1="38.781" x2="33.635" y2="29.603"/>
	<path fill="none" stroke="#5A5CF8" stroke-width="2" stroke-linecap="round" stroke-linejoin="round" stroke-miterlimit="10" d="
		M70.346,66.315l-1.836,1.836c-2.028,2.028-5.315,2.028-7.342,0l-1.836-1.836"/>
	<path fill="none" stroke="#5A5CF8" stroke-width="2" stroke-linecap="round" stroke-linejoin="round" stroke-miterlimit="10" d="
		M59.448,53.466c0-3.327-1.262-6.654-3.786-9.178l-9.178-9.178L28.128,53.466l9.178,9.178c5.048,5.048,13.308,5.048,18.356,0"/>
	<path fill="none" stroke="#5A5CF8" stroke-width="2" stroke-linecap="round" stroke-linejoin="round" stroke-miterlimit="10" d="
		M55.662,62.644l5.507,5.507c2.028,2.028,5.315,2.028,7.342,0l1.836-1.836l0.918-0.918c1.514-1.514,3.992-1.514,5.507,0l0,0
		c1.514,1.514,1.514,3.992,0,5.507l-4.589,4.589c-1.014,1.014-1.014,2.657,0,3.671L74.017,81"/>
</g>
</svg>
