<?xml version="1.0" encoding="utf-8"?>
<!-- Generator: Adobe Illustrator 19.2.1, SVG Export Plug-In . SVG Version: 6.00 Build 0)  -->
<svg version="1.1" id="Layer_1" fill="#5a5cf8" focusable="false" xmlns="http://www.w3.org/2000/svg" xmlns:xlink="http://www.w3.org/1999/xlink"
	 x="0px" y="0px" viewBox="0 0 1000 1000" style="enable-background:new 0 0 1000 1000;" xml:space="preserve">
	<path class="st2" d="M867.6,286c11.3-11.3,11.3-29.7,0-41c-11.3-11.3-29.7-11.3-41,0L500,571.6L173.4,245
		c-11.3-11.3-29.7-11.3-41,0c-11.3,11.3-11.3,29.7,0,41L459,612.6l-60.8,60.8c-35.8,30.2-56.3,74.2-56.3,121
		c0,87.2,71,158.2,158.2,158.2s158.2-71,158.2-158.2c0-46.8-20.5-90.8-56.3-121L541,612.6L867.6,286z M500,894.6
		c-55.2,0-100.2-44.9-100.2-100.2c0-23.1,7.9-45.1,22-62.7l16.5-16.5l0.1-0.1c0,0,0.1-0.1,0.1-0.1l61.5-61.5l61.5,61.5
		c0,0,0.1,0.1,0.1,0.1l0.1,0.1c0,0,0,0,0,0s0,0,0,0l16.5,16.5c14.2,17.6,22,39.6,22,62.7C600.2,849.7,555.2,894.6,500,894.6z"/>
	<path class="st2" d="M500.8,362.2c86.8,0,157.4-70.6,157.4-157.4S587.6,47.4,500.8,47.4c-86.8,0-157.4,70.6-157.4,157.4
		S414,362.2,500.8,362.2z M500.8,105.4c54.8,0,99.4,44.6,99.4,99.4s-44.6,99.4-99.4,99.4c-54.8,0-99.4-44.6-99.4-99.4
		S446,105.4,500.8,105.4z"/>
</svg>
