<?xml version="1.0" encoding="utf-8"?>
<!-- Generator: Adobe Illustrator 19.2.1, SVG Export Plug-In . SVG Version: 6.00 Build 0)  -->
<svg version="1.1" id="Layer_1" xmlns="http://www.w3.org/2000/svg" xmlns:xlink="http://www.w3.org/1999/xlink" x="0px" y="0px"
	 viewBox="0 0 100.4 100.4" style="enable-background:new 0 0 100.4 100.4;" xml:space="preserve">
<path d="M90.6,66.6H74.7V54.4h15.6c0.8,0,1.5-0.7,1.5-1.5V36.1c0-0.8-0.7-1.5-1.5-1.5H74.9V20.2c0-0.8-0.7-1.5-1.5-1.5H34v-6.9
	c0-0.8-0.7-1.5-1.5-1.5h-23c-0.8,0-1.5,0.7-1.5,1.5v16.8c0,0.8,0.7,1.5,1.5,1.5h10v9.7l0.3,16.8v9.7h-10c-0.8,0-1.5,0.7-1.5,1.5
	v16.8c0,0.8,0.7,1.5,1.5,1.5h23c0.8,0,1.5-0.7,1.5-1.5V67.9c0-0.8-0.7-1.5-1.5-1.5h-10v-9.7l-0.3-16.8v-9.7h10
	c0.8,0,1.5-0.7,1.5-1.5v-6.9h37.9v12.9h-26c-0.8,0-1.5,0.7-1.5,1.5v16.8c0,0.8,0.7,1.5,1.5,1.5h25.9v12.2H45.6
	c-0.8,0-1.5,0.7-1.5,1.5v16.8c0,0.8,0.7,1.5,1.5,1.5h44.9c0.8,0,1.5-0.7,1.5-1.5V68.1C92.1,67.3,91.4,66.6,90.6,66.6z M31.3,83.2
	h-20V69.4h20V83.2z M31,27.1h-20V13.3h20V27.1z M47.4,37.6h41.5v13.8H47.4V37.6z M89.1,83.4H47.1V69.6h41.9V83.4z"/>
</svg>
